<mxfile host="app.diagrams.net" agent="Mozilla/5.0 (Windows NT 10.0; Win64; x64; rv:140.0) Gecko/20100101 Firefox/140.0" version="28.0.4">
  <diagram name="Página-1" id="5-ZYJZyl-G9EGdnEeSdd">
    <mxGraphModel dx="3396" dy="1908" grid="0" gridSize="10" guides="1" tooltips="1" connect="1" arrows="1" fold="1" page="0" pageScale="1" pageWidth="827" pageHeight="1169" math="0" shadow="0">
      <root>
        <mxCell id="0" />
        <mxCell id="1" parent="0" />
        <mxCell id="5eaZL5wBWCxhB7KrAur7-1" value="«interface»&lt;br&gt;&lt;b&gt;Comando&lt;/b&gt;" style="html=1;whiteSpace=wrap;" vertex="1" parent="1">
          <mxGeometry x="195.5" y="83" width="154.5" height="50" as="geometry" />
        </mxCell>
        <mxCell id="5eaZL5wBWCxhB7KrAur7-3" value="DevolucaoComando" style="swimlane;fontStyle=1;align=center;verticalAlign=top;childLayout=stackLayout;horizontal=1;startSize=26;horizontalStack=0;resizeParent=1;resizeParentMax=0;resizeLast=0;collapsible=1;marginBottom=0;whiteSpace=wrap;html=1;" vertex="1" parent="1">
          <mxGeometry x="175" y="259" width="223" height="60" as="geometry" />
        </mxCell>
        <mxCell id="5eaZL5wBWCxhB7KrAur7-4" value="+ executar(parametros: String[]): String" style="text;strokeColor=none;fillColor=none;align=left;verticalAlign=top;spacingLeft=4;spacingRight=4;overflow=hidden;rotatable=0;points=[[0,0.5],[1,0.5]];portConstraint=eastwest;whiteSpace=wrap;html=1;" vertex="1" parent="5eaZL5wBWCxhB7KrAur7-3">
          <mxGeometry y="26" width="223" height="26" as="geometry" />
        </mxCell>
        <mxCell id="5eaZL5wBWCxhB7KrAur7-5" value="" style="line;strokeWidth=1;fillColor=none;align=left;verticalAlign=middle;spacingTop=-1;spacingLeft=3;spacingRight=3;rotatable=0;labelPosition=right;points=[];portConstraint=eastwest;strokeColor=inherit;" vertex="1" parent="5eaZL5wBWCxhB7KrAur7-3">
          <mxGeometry y="52" width="223" height="8" as="geometry" />
        </mxCell>
        <mxCell id="5eaZL5wBWCxhB7KrAur7-7" value="ReservaComando" style="swimlane;fontStyle=1;align=center;verticalAlign=top;childLayout=stackLayout;horizontal=1;startSize=26;horizontalStack=0;resizeParent=1;resizeParentMax=0;resizeLast=0;collapsible=1;marginBottom=0;whiteSpace=wrap;html=1;" vertex="1" parent="1">
          <mxGeometry x="408" y="258" width="226" height="60" as="geometry" />
        </mxCell>
        <mxCell id="5eaZL5wBWCxhB7KrAur7-8" value="+ executar(parametros: String[]): String" style="text;strokeColor=none;fillColor=none;align=left;verticalAlign=top;spacingLeft=4;spacingRight=4;overflow=hidden;rotatable=0;points=[[0,0.5],[1,0.5]];portConstraint=eastwest;whiteSpace=wrap;html=1;" vertex="1" parent="5eaZL5wBWCxhB7KrAur7-7">
          <mxGeometry y="26" width="226" height="26" as="geometry" />
        </mxCell>
        <mxCell id="5eaZL5wBWCxhB7KrAur7-9" value="" style="line;strokeWidth=1;fillColor=none;align=left;verticalAlign=middle;spacingTop=-1;spacingLeft=3;spacingRight=3;rotatable=0;labelPosition=right;points=[];portConstraint=eastwest;strokeColor=inherit;" vertex="1" parent="5eaZL5wBWCxhB7KrAur7-7">
          <mxGeometry y="52" width="226" height="8" as="geometry" />
        </mxCell>
        <mxCell id="5eaZL5wBWCxhB7KrAur7-11" value="ObservadorComando" style="swimlane;fontStyle=1;align=center;verticalAlign=top;childLayout=stackLayout;horizontal=1;startSize=26;horizontalStack=0;resizeParent=1;resizeParentMax=0;resizeLast=0;collapsible=1;marginBottom=0;whiteSpace=wrap;html=1;" vertex="1" parent="1">
          <mxGeometry x="-77.5" y="333" width="243" height="60" as="geometry" />
        </mxCell>
        <mxCell id="5eaZL5wBWCxhB7KrAur7-12" value="+ executar(parametros: String[]): String" style="text;strokeColor=none;fillColor=none;align=left;verticalAlign=top;spacingLeft=4;spacingRight=4;overflow=hidden;rotatable=0;points=[[0,0.5],[1,0.5]];portConstraint=eastwest;whiteSpace=wrap;html=1;" vertex="1" parent="5eaZL5wBWCxhB7KrAur7-11">
          <mxGeometry y="26" width="243" height="26" as="geometry" />
        </mxCell>
        <mxCell id="5eaZL5wBWCxhB7KrAur7-13" value="" style="line;strokeWidth=1;fillColor=none;align=left;verticalAlign=middle;spacingTop=-1;spacingLeft=3;spacingRight=3;rotatable=0;labelPosition=right;points=[];portConstraint=eastwest;strokeColor=inherit;" vertex="1" parent="5eaZL5wBWCxhB7KrAur7-11">
          <mxGeometry y="52" width="243" height="8" as="geometry" />
        </mxCell>
        <mxCell id="5eaZL5wBWCxhB7KrAur7-15" value="ConsultarUsuarioComando" style="swimlane;fontStyle=1;align=center;verticalAlign=top;childLayout=stackLayout;horizontal=1;startSize=26;horizontalStack=0;resizeParent=1;resizeParentMax=0;resizeLast=0;collapsible=1;marginBottom=0;whiteSpace=wrap;html=1;" vertex="1" parent="1">
          <mxGeometry x="408" y="332" width="226" height="60" as="geometry" />
        </mxCell>
        <mxCell id="5eaZL5wBWCxhB7KrAur7-16" value="+ executar(parametros: String[]): String" style="text;strokeColor=none;fillColor=none;align=left;verticalAlign=top;spacingLeft=4;spacingRight=4;overflow=hidden;rotatable=0;points=[[0,0.5],[1,0.5]];portConstraint=eastwest;whiteSpace=wrap;html=1;" vertex="1" parent="5eaZL5wBWCxhB7KrAur7-15">
          <mxGeometry y="26" width="226" height="26" as="geometry" />
        </mxCell>
        <mxCell id="5eaZL5wBWCxhB7KrAur7-17" value="" style="line;strokeWidth=1;fillColor=none;align=left;verticalAlign=middle;spacingTop=-1;spacingLeft=3;spacingRight=3;rotatable=0;labelPosition=right;points=[];portConstraint=eastwest;strokeColor=inherit;" vertex="1" parent="5eaZL5wBWCxhB7KrAur7-15">
          <mxGeometry y="52" width="226" height="8" as="geometry" />
        </mxCell>
        <mxCell id="5eaZL5wBWCxhB7KrAur7-19" value="ConsultarLivroComando" style="swimlane;fontStyle=1;align=center;verticalAlign=top;childLayout=stackLayout;horizontal=1;startSize=26;horizontalStack=0;resizeParent=1;resizeParentMax=0;resizeLast=0;collapsible=1;marginBottom=0;whiteSpace=wrap;html=1;" vertex="1" parent="1">
          <mxGeometry x="175" y="333" width="222" height="60" as="geometry" />
        </mxCell>
        <mxCell id="5eaZL5wBWCxhB7KrAur7-20" value="+ executar(parametros: String[]): String" style="text;strokeColor=none;fillColor=none;align=left;verticalAlign=top;spacingLeft=4;spacingRight=4;overflow=hidden;rotatable=0;points=[[0,0.5],[1,0.5]];portConstraint=eastwest;whiteSpace=wrap;html=1;" vertex="1" parent="5eaZL5wBWCxhB7KrAur7-19">
          <mxGeometry y="26" width="222" height="26" as="geometry" />
        </mxCell>
        <mxCell id="5eaZL5wBWCxhB7KrAur7-21" value="" style="line;strokeWidth=1;fillColor=none;align=left;verticalAlign=middle;spacingTop=-1;spacingLeft=3;spacingRight=3;rotatable=0;labelPosition=right;points=[];portConstraint=eastwest;strokeColor=inherit;" vertex="1" parent="5eaZL5wBWCxhB7KrAur7-19">
          <mxGeometry y="52" width="222" height="8" as="geometry" />
        </mxCell>
        <mxCell id="5eaZL5wBWCxhB7KrAur7-23" value="EmprestimoComando" style="swimlane;fontStyle=1;align=center;verticalAlign=top;childLayout=stackLayout;horizontal=1;startSize=26;horizontalStack=0;resizeParent=1;resizeParentMax=0;resizeLast=0;collapsible=1;marginBottom=0;whiteSpace=wrap;html=1;" vertex="1" parent="1">
          <mxGeometry x="-77.5" y="259" width="243.5" height="60" as="geometry" />
        </mxCell>
        <mxCell id="5eaZL5wBWCxhB7KrAur7-24" value="+ executar(parametros: String[]): String" style="text;strokeColor=none;fillColor=none;align=left;verticalAlign=top;spacingLeft=4;spacingRight=4;overflow=hidden;rotatable=0;points=[[0,0.5],[1,0.5]];portConstraint=eastwest;whiteSpace=wrap;html=1;" vertex="1" parent="5eaZL5wBWCxhB7KrAur7-23">
          <mxGeometry y="26" width="243.5" height="26" as="geometry" />
        </mxCell>
        <mxCell id="5eaZL5wBWCxhB7KrAur7-25" value="" style="line;strokeWidth=1;fillColor=none;align=left;verticalAlign=middle;spacingTop=-1;spacingLeft=3;spacingRight=3;rotatable=0;labelPosition=right;points=[];portConstraint=eastwest;strokeColor=inherit;" vertex="1" parent="5eaZL5wBWCxhB7KrAur7-23">
          <mxGeometry y="52" width="243.5" height="8" as="geometry" />
        </mxCell>
        <mxCell id="5eaZL5wBWCxhB7KrAur7-56" style="edgeStyle=none;curved=1;rounded=0;orthogonalLoop=1;jettySize=auto;html=1;exitX=0.5;exitY=1;exitDx=0;exitDy=0;entryX=0.5;entryY=0;entryDx=0;entryDy=0;fontSize=12;startSize=8;endSize=8;" edge="1" parent="1" source="5eaZL5wBWCxhB7KrAur7-31" target="5eaZL5wBWCxhB7KrAur7-35">
          <mxGeometry relative="1" as="geometry" />
        </mxCell>
        <mxCell id="5eaZL5wBWCxhB7KrAur7-31" value="Main" style="swimlane;fontStyle=1;align=center;verticalAlign=top;childLayout=stackLayout;horizontal=1;startSize=26;horizontalStack=0;resizeParent=1;resizeParentMax=0;resizeLast=0;collapsible=1;marginBottom=0;whiteSpace=wrap;html=1;" vertex="1" parent="1">
          <mxGeometry x="193" y="-120" width="160" height="34" as="geometry" />
        </mxCell>
        <mxCell id="5eaZL5wBWCxhB7KrAur7-33" value="" style="line;strokeWidth=1;fillColor=none;align=left;verticalAlign=middle;spacingTop=-1;spacingLeft=3;spacingRight=3;rotatable=0;labelPosition=right;points=[];portConstraint=eastwest;strokeColor=inherit;" vertex="1" parent="5eaZL5wBWCxhB7KrAur7-31">
          <mxGeometry y="26" width="160" height="8" as="geometry" />
        </mxCell>
        <mxCell id="5eaZL5wBWCxhB7KrAur7-55" style="edgeStyle=none;curved=1;rounded=0;orthogonalLoop=1;jettySize=auto;html=1;exitX=0.5;exitY=1;exitDx=0;exitDy=0;entryX=0.5;entryY=0;entryDx=0;entryDy=0;fontSize=12;startSize=8;endSize=8;" edge="1" parent="1" source="5eaZL5wBWCxhB7KrAur7-35" target="5eaZL5wBWCxhB7KrAur7-1">
          <mxGeometry relative="1" as="geometry" />
        </mxCell>
        <mxCell id="5eaZL5wBWCxhB7KrAur7-35" value="ExecutorDeComandos" style="swimlane;fontStyle=1;align=center;verticalAlign=top;childLayout=stackLayout;horizontal=1;startSize=26;horizontalStack=0;resizeParent=1;resizeParentMax=0;resizeLast=0;collapsible=1;marginBottom=0;whiteSpace=wrap;html=1;" vertex="1" parent="1">
          <mxGeometry x="165.25" y="-54" width="215" height="115" as="geometry" />
        </mxCell>
        <mxCell id="5eaZL5wBWCxhB7KrAur7-36" value="- comandos: Map&amp;lt;String, Comando&amp;gt;" style="text;strokeColor=none;fillColor=none;align=left;verticalAlign=top;spacingLeft=4;spacingRight=4;overflow=hidden;rotatable=0;points=[[0,0.5],[1,0.5]];portConstraint=eastwest;whiteSpace=wrap;html=1;" vertex="1" parent="5eaZL5wBWCxhB7KrAur7-35">
          <mxGeometry y="26" width="215" height="26" as="geometry" />
        </mxCell>
        <mxCell id="5eaZL5wBWCxhB7KrAur7-37" value="" style="line;strokeWidth=1;fillColor=none;align=left;verticalAlign=middle;spacingTop=-1;spacingLeft=3;spacingRight=3;rotatable=0;labelPosition=right;points=[];portConstraint=eastwest;strokeColor=inherit;" vertex="1" parent="5eaZL5wBWCxhB7KrAur7-35">
          <mxGeometry y="52" width="215" height="8" as="geometry" />
        </mxCell>
        <mxCell id="5eaZL5wBWCxhB7KrAur7-38" value="+ registrar(nome: String, comando: Comando)&lt;br&gt;+ executar(entrada: String): String" style="text;strokeColor=none;fillColor=none;align=left;verticalAlign=top;spacingLeft=4;spacingRight=4;overflow=hidden;rotatable=0;points=[[0,0.5],[1,0.5]];portConstraint=eastwest;whiteSpace=wrap;html=1;" vertex="1" parent="5eaZL5wBWCxhB7KrAur7-35">
          <mxGeometry y="60" width="215" height="55" as="geometry" />
        </mxCell>
        <mxCell id="5eaZL5wBWCxhB7KrAur7-43" style="edgeStyle=none;curved=1;rounded=0;orthogonalLoop=1;jettySize=auto;html=1;exitX=0.5;exitY=1;exitDx=0;exitDy=0;entryX=0.5;entryY=0;entryDx=0;entryDy=0;fontSize=12;startSize=8;endSize=8;" edge="1" parent="1" source="5eaZL5wBWCxhB7KrAur7-39" target="5eaZL5wBWCxhB7KrAur7-42">
          <mxGeometry relative="1" as="geometry" />
        </mxCell>
        <mxCell id="5eaZL5wBWCxhB7KrAur7-39" value="+ executar(String[]): String" style="rounded=0;whiteSpace=wrap;html=1;" vertex="1" parent="1">
          <mxGeometry x="195.5" y="133" width="154.5" height="60" as="geometry" />
        </mxCell>
        <mxCell id="5eaZL5wBWCxhB7KrAur7-41" style="edgeStyle=none;curved=1;rounded=0;orthogonalLoop=1;jettySize=auto;html=1;exitX=0.5;exitY=0;exitDx=0;exitDy=0;fontSize=12;startSize=8;endSize=8;" edge="1" parent="1" source="5eaZL5wBWCxhB7KrAur7-15" target="5eaZL5wBWCxhB7KrAur7-15">
          <mxGeometry relative="1" as="geometry" />
        </mxCell>
        <mxCell id="5eaZL5wBWCxhB7KrAur7-42" value="" style="rounded=0;whiteSpace=wrap;html=1;fillColor=none;" vertex="1" parent="1">
          <mxGeometry x="-114" y="227" width="774" height="258" as="geometry" />
        </mxCell>
        <mxCell id="5eaZL5wBWCxhB7KrAur7-45" value="ConsultarNotificacaoComando" style="swimlane;fontStyle=1;align=center;verticalAlign=top;childLayout=stackLayout;horizontal=1;startSize=26;horizontalStack=0;resizeParent=1;resizeParentMax=0;resizeLast=0;collapsible=1;marginBottom=0;whiteSpace=wrap;html=1;" vertex="1" parent="1">
          <mxGeometry x="175" y="401" width="223" height="60" as="geometry" />
        </mxCell>
        <mxCell id="5eaZL5wBWCxhB7KrAur7-46" value="+ executar(parametros: String[]): String" style="text;strokeColor=none;fillColor=none;align=left;verticalAlign=top;spacingLeft=4;spacingRight=4;overflow=hidden;rotatable=0;points=[[0,0.5],[1,0.5]];portConstraint=eastwest;whiteSpace=wrap;html=1;" vertex="1" parent="5eaZL5wBWCxhB7KrAur7-45">
          <mxGeometry y="26" width="223" height="26" as="geometry" />
        </mxCell>
        <mxCell id="5eaZL5wBWCxhB7KrAur7-47" value="" style="line;strokeWidth=1;fillColor=none;align=left;verticalAlign=middle;spacingTop=-1;spacingLeft=3;spacingRight=3;rotatable=0;labelPosition=right;points=[];portConstraint=eastwest;strokeColor=inherit;" vertex="1" parent="5eaZL5wBWCxhB7KrAur7-45">
          <mxGeometry y="52" width="223" height="8" as="geometry" />
        </mxCell>
        <mxCell id="5eaZL5wBWCxhB7KrAur7-48" value="SistemaBiblioteca" style="swimlane;fontStyle=1;align=center;verticalAlign=top;childLayout=stackLayout;horizontal=1;startSize=26;horizontalStack=0;resizeParent=1;resizeParentMax=0;resizeLast=0;collapsible=1;marginBottom=0;whiteSpace=wrap;html=1;" vertex="1" parent="1">
          <mxGeometry x="486" y="-41" width="372" height="196" as="geometry" />
        </mxCell>
        <mxCell id="5eaZL5wBWCxhB7KrAur7-49" value="- repositorio: BibliotecaRepositorio" style="text;strokeColor=none;fillColor=none;align=left;verticalAlign=top;spacingLeft=4;spacingRight=4;overflow=hidden;rotatable=0;points=[[0,0.5],[1,0.5]];portConstraint=eastwest;whiteSpace=wrap;html=1;" vertex="1" parent="5eaZL5wBWCxhB7KrAur7-48">
          <mxGeometry y="26" width="372" height="26" as="geometry" />
        </mxCell>
        <mxCell id="5eaZL5wBWCxhB7KrAur7-50" value="" style="line;strokeWidth=1;fillColor=none;align=left;verticalAlign=middle;spacingTop=-1;spacingLeft=3;spacingRight=3;rotatable=0;labelPosition=right;points=[];portConstraint=eastwest;strokeColor=inherit;" vertex="1" parent="5eaZL5wBWCxhB7KrAur7-48">
          <mxGeometry y="52" width="372" height="8" as="geometry" />
        </mxCell>
        <mxCell id="5eaZL5wBWCxhB7KrAur7-51" value="+ SistemaBiblioteca(repositorio: BibliotecaRepositorio)&lt;br&gt;&amp;nbsp; + realizarEmprestimo(codigoUsuario: int, codigoLivro: int): String&lt;br&gt;&amp;nbsp; + realizarDevolucao(codigoUsuario: int, codigoLivro: int): String&lt;br&gt;&amp;nbsp; + realizarReserva(codigoUsuario: int, codigoLivro: int): String&lt;br&gt;&amp;nbsp; + registrarObservador(codigoUsuario: int, codigoLivro: int): String&lt;br&gt;&amp;nbsp; + consultarLivro(codigoLivro: int): String&lt;br&gt;&amp;nbsp; + consultarUsuario(codigoUsuario: int): String&lt;br&gt;&amp;nbsp; + consultarNotificacoes(codigoUsuario: int): String" style="text;strokeColor=none;fillColor=none;align=left;verticalAlign=top;spacingLeft=4;spacingRight=4;overflow=hidden;rotatable=0;points=[[0,0.5],[1,0.5]];portConstraint=eastwest;whiteSpace=wrap;html=1;" vertex="1" parent="5eaZL5wBWCxhB7KrAur7-48">
          <mxGeometry y="60" width="372" height="136" as="geometry" />
        </mxCell>
        <mxCell id="5eaZL5wBWCxhB7KrAur7-54" style="edgeStyle=none;curved=1;rounded=0;orthogonalLoop=1;jettySize=auto;html=1;entryX=0.53;entryY=1.046;entryDx=0;entryDy=0;entryPerimeter=0;fontSize=12;startSize=8;endSize=8;" edge="1" parent="1" source="5eaZL5wBWCxhB7KrAur7-42" target="5eaZL5wBWCxhB7KrAur7-51">
          <mxGeometry relative="1" as="geometry" />
        </mxCell>
      </root>
    </mxGraphModel>
  </diagram>
</mxfile>
